<?xml version="1.0" encoding="UTF-8"?>
<svg id="Layer_1" xmlns="http://www.w3.org/2000/svg" version="1.1" viewBox="123.4 193.7 962.7 178.2">
  <!-- Generator: Adobe Illustrator 29.1.0, SVG Export Plug-In . SVG Version: 2.1.0 Build 142)  -->
  <defs>
    <style>
      .st1 {
        fill: #fff;
      }

      .st1, .st2 {
        fill-rule: evenodd;
      }

      .st2 {
        fill: #9e4aa7;
      }

      .st3 {
        fill: #fff;
      }
    </style>
  </defs>
  <path class="st3" d="M400.9,241.7h0v45.5c-3.4-4.5-7.8-8-13.5-10.7-.7-.4-1.5-.7-2.2-1-4.7-2-8.6-3.1-15.7-3.1s-15.7,2-22.4,6.1c-.7.4-1.3.9-2,1.3-.2.1-.3.2-.5.3,0,0,0,0,0,0-3.9,2.8-7.3,6.3-10.2,10.4-1.2,1.7-2.2,3.4-3.2,5.3h0c-3.9,7.6-5.8,16.1-5.8,25.9s1.9,18.5,5.8,26.1c3.9,7.6,9.2,13.4,15.9,17.6,1,.6,2,1.1,3,1.7,4.3,2.2,9,3.7,13.9,4.3,1.8.2,3.6.4,5.3.4,7.1,0,13.5-1.4,18.9-4.3,1.7-.9,3.2-1.9,4.7-2.9,3.3-2.4,5.9-5.2,8-8.5v14.1h24.7s0,0,0,0v-128.5h-24.7ZM397.5,337.3c-2.3,4.2-5.5,7.4-9.4,9.7-4,2.3-8.2,3.4-12.6,3.4-4.4,0-8.5-1.2-12.4-3.5-3.9-2.3-7-5.6-9.4-10-2.4-4.3-3.6-9.4-3.6-15.2s1.2-10.8,3.6-15c2.4-4.2,5.5-7.4,9.3-9.6,2.4-1.4,4.8-2.3,7.5-2.8,1.6-.3,3.2-.5,4.9-.5,4.5,0,8.8,1.1,12.7,3.4,4,2.2,7.1,5.5,9.4,9.7s3.5,9.3,3.5,15.2-1.2,11-3.5,15.2ZM449.3,274h24.3v96.2h0s-24.3,0-24.3,0v-96.2h0ZM472.3,238.1c2.8,2.7,4.3,6.1,4.3,10.2s-1.1,6.6-3.3,9.1c-.3.4-.7.7-1,1.1-2.8,2.7-6.4,4.1-10.7,4.1s-7.8-1.4-10.7-4.1c-2.8-2.7-4.3-6.1-4.3-10.2s1.4-7.4,4.3-10.2c2.8-2.7,6.4-4.1,10.7-4.1s2.1,0,3.1.3c3,.5,5.5,1.8,7.7,3.8ZM567.2,327.4c3.3,3.9,5,9,5.1,15.4,0,5.6-1.5,10.5-4.6,14.9-2.7,3.9-6.4,7-11.2,9.4-.7.4-1.4.7-2.1,1-5.7,2.5-12.4,3.7-20.1,3.7s-14.9-1.4-21.2-4.3h0c-6.3-2.8-11.2-6.7-14.8-11.5-3.6-4.9-5.6-10.2-6-16.1h0s0,0,0,0h24.5c.5,3.7,2.3,6.8,5.5,9.2,3.2,2.4,7.1,3.6,11.9,3.6s8.3-.9,10.9-2.8c2.6-1.9,3.9-4.2,3.9-7.1s0-1.5-.3-2.1c-.6-2-2.1-3.7-4.5-4.8-3.2-1.6-8.2-3.3-15.2-5.1-7.2-1.7-13.1-3.5-17.6-5.4-4.6-1.9-8.5-4.7-11.8-8.5-.6-.6-1-1.3-1.5-2-2.3-3.6-3.5-8.1-3.5-13.5s.2-3.5.5-5.2c0,0,0-.2,0-.2,0-.1,0-.3,0-.4.4-1.7.9-3.3,1.7-4.7.6-1.4,1.4-2.7,2.3-4,3.1-4.4,7.5-7.9,13.2-10.4,5.7-2.5,12.5-3.8,20.2-3.8,11.5,0,20.6,2.9,27.4,8.6,5.1,4.3,8.5,9.8,10.2,16.3.6,2.2.9,4.5,1.1,7h-23.3c0,0,0-.2,0-.2-.1-1.4-.4-2.6-.9-3.8-.8-2-2.1-3.7-3.9-5.1-2.8-2.3-6.6-3.4-11.4-3.4s-7.8.8-10.2,2.4c-.3.2-.6.4-.8.6-1.8,1.6-2.7,3.6-2.7,6.1s1.6,5.7,4.9,7.4c3.2,1.7,8.3,3.4,15.1,5.1,6.9,1.7,12.7,3.5,17.2,5.4,4.5,1.9,8.4,4.7,11.7,8.6ZM616.9,300.6c-4.1,5-6.1,12.2-6.1,21.5s2,16.2,6.1,21.3c.2.3.5.6.8.9,4,4.4,9.2,6.6,15.7,6.6,9.8,0,16.3-4.4,19.3-13.2h26.2s0,0,0,0h0c-2.7,10.4-7.9,18.7-15.8,24.8-7.9,6.1-17.7,9.2-29.5,9.2s-2.8,0-4.2-.2c-7.7-.4-12.5-1.9-17.6-4.5-1-.5-1.9-1-2.9-1.5-7.2-4.1-12.8-9.9-16.8-17.4-1-1.9-1.9-3.8-2.7-5.9-2.3-6.1-3.5-12.9-3.5-20.4s2-18.7,6.1-26.1h0c4.1-7.4,9.7-13.2,16.8-17.3,7.2-4.1,15.4-6.2,24.7-6.2s.8,0,1.1,0c11.5.2,21,3.1,28.6,8.9,7.8,6,13.1,14.3,15.7,25.1h-26.2s0,0,0,0h-.1c-1.4-4.2-3.7-7.4-7-9.8-.8-.6-1.7-1.1-2.6-1.6-2.7-1.3-5.9-2-9.5-2-6.9,0-12.5,2.5-16.5,7.6ZM765.5,278.6c-6.8-3.7-14.3-5.7-22.4-6.1-1,0-2,0-3,0-9.3,0-17.7,2.1-25.2,6.2-7.5,4.2-13.5,10-17.8,17.5s-6.5,16.2-6.5,26,2.1,18.5,6.3,26c4.3,7.6,10.1,13.4,17.5,17.5,7.4,4.1,15.7,6.2,25,6.2s4.7-.1,7-.4c6.7-.8,13-2.7,18.7-5.8,7.6-4.1,13.6-9.9,18.1-17.5,4.5-7.5,6.7-16.2,6.7-26.1s-2.2-18.5-6.5-26.1c-4.3-7.5-10.3-13.3-17.8-17.5ZM761.2,337.8c-2.3,4.2-5.4,7.5-9.3,9.6h0c-3.9,2.1-8,3.2-12.3,3.2-6.9,0-12.7-2.5-17.3-7.4-4.6-4.9-6.9-12-6.9-21.1s1.8-14.4,5.4-19.1c.5-.6,1-1.3,1.6-1.8,4.7-4.9,10.6-7.4,17.5-7.4s12.8,2.5,17.6,7.4c4.8,4.9,7.2,12,7.2,21.1s-1.2,11.3-3.5,15.6ZM886.1,278.5c-6.7-4.1-14.1-6.1-22.3-6.1s-10.2.8-14.7,2.5c-1.5.5-2.9,1.2-4.3,1.9h0c-5.4,2.9-9.7,6.7-12.8,11.2v-46.4h-24.3c0,.1,0,.1,0,.1v128.5h24.3c0-.1.1-.1.1-.1v-13.5c3.2,4.4,7.4,8.1,12.8,10.9,5.3,2.9,10.6,4.3,18.8,4.3s12-1.2,17.3-3.6c1.8-.8,3.5-1.7,5.2-2.8,6.7-4.2,11.9-10,15.8-17.6,3.9-7.6,5.8-16.3,5.8-26.1s-1.9-18.5-5.8-26c-3.9-7.5-9.1-13.2-15.8-17.3ZM879.1,337c-2.4,4.3-5.5,7.6-9.4,9.9-3.9,2.3-8.1,3.5-12.4,3.5-4.4,0-8.5-1.1-12.3-3.4-3.9-2.3-7-5.5-9.4-9.8-2.4-4.3-3.6-9.3-3.6-15.1s1.2-10.8,3.6-15.1c2.4-4.3,5.5-7.6,9.4-9.8,3.3-1.9,6.8-3,10.5-3.3.5,0,1.1,0,1.6,0,4.5,0,8.7,1.1,12.6,3.3,3.9,2.2,7,5.4,9.4,9.6,2.4,4.2,3.6,9.1,3.6,15s-1.2,11-3.6,15.3ZM994,278.6c-6.6-3.6-13.9-5.6-21.9-6.1-1.1,0-2.3,0-3.4,0-9.3,0-17.7,2.1-25.2,6.2-7.5,4.2-13.5,10-17.8,17.5s-6.5,16.2-6.5,26,2.1,18.5,6.3,26c4.3,7.6,10.1,13.4,17.5,17.5h0c7.4,4.1,15.7,6.2,25,6.2s4.7-.1,7-.4c6.7-.8,12.9-2.7,18.7-5.8,7.6-4.1,13.6-9.9,18.1-17.5,4.5-7.5,6.7-16.2,6.7-26.1s-2.2-18.5-6.5-26.1c-4.3-7.5-10.3-13.3-17.8-17.5ZM989.7,337.8c-2.3,4.2-5.4,7.5-9.3,9.6h0c-3.8,2.1-7.9,3.2-12.3,3.2-6.9,0-12.7-2.5-17.3-7.4-4.6-4.9-6.9-12-6.9-21.1s2.3-16.2,7-21.1c.9-.9,1.8-1.7,2.7-2.5,4.1-3.2,9-4.8,14.6-4.8s12.8,2.5,17.6,7.4c4.8,4.9,7.2,12,7.2,21.1s-1.2,11.3-3.5,15.6ZM1064.6,293.9v46.6c0,3.2.8,5.6,2.3,7,1.5,1.4,4.1,2.2,7.8,2.2h11.1s.3,0,.3,0v20.5h-.3s-15.3,0-15.3,0c-20.5,0-30.7-10-30.7-29.9v-46.4h-11.2s-.3,0-.3,0v-20h11.5v-23.8h24.5c0,0,.3,0,.3,0v23.7h21.2c0,0,.3,0,.3,0v20h-21.5Z"/>
  <path class="st2" d="M281.6,334.3c0-.8.3-1.9.5-2.4,3.1-6.7.5-14.7-6-18.3l-3.1-1.7c-3.6,5-7.9,9.4-12.8,13.2l29.7,36.1c1.4,1.7,1.7,4.1.7,6-.9,2-2.9,3.3-5.1,3.3h-52c-1.9,0-3.8-1-4.8-2.6l-18.7-29.6h-.2c-.4.2-.8.3-1.2.4l-23,6,7.1,18.1c.7,1.8.5,3.7-.6,5.3-1.1,1.6-2.8,2.5-4.7,2.5h-47.7c-1.5,0-3-.6-4-1.7-1.1-1.1-1.7-2.5-1.7-4v-23.7c0-9.8,5.9-18.6,14.9-22.3l9.4-3.9c-14.9-15.6-21.7-38.2-16.4-60.5l-4.3-3.7c-9-7.7-14.2-18.9-14.2-30.7v-20.8c0-3.1,2.5-5.6,5.6-5.6s5.6,2.5,5.6,5.6v20.8c0,8.5,3.8,16.7,10.3,22.2l1.9,1.6c2-2.6,4.5-4.8,7.4-6.5h0c5.7-3.3,12.6-4.2,19-2.5l92.6,24.8c6.4,1.7,11.9,5.9,15.2,11.6q2.2,3.8,0,0c3.3,5.7,4.2,12.6,2.5,19-1.1,4.2-2.7,8.2-4.6,12.1l2.7,1.5c11.7,6.4,16.4,20.7,10.8,32.8-1.7,3.6-5.1,3.2-5.1,3.2-3.1,0-5.4-2.5-5.6-5.6h-.1ZM262.7,270.6c3.5.9,6.5,3.2,8.3,6.3s2.3,6.8,1.4,10.3c-3.7,13.9-12.9,25.8-25.4,33h0c-12.5,7.2-27.4,9.2-41.3,5.4l-13.7-3.7c-29-7.8-46.3-37.6-38.5-66.6.9-3.5,3.2-6.5,6.3-8.3s6.8-2.3,10.3-1.4l92.6,24.8v.2Z"/>
  <path class="st2" d="M243.8,279.3c-6-1.6-12.3,2-13.9,8-1.6,6,2,12.3,8,13.9s12.3-2,13.9-8-2-12.3-8-13.9Z"/>
  <path class="st2" d="M196,287.4c-.4,1.4-.2,2.9.5,4.1.7,1.3,1.9,2.2,3.3,2.5l4.4,1.2c3.8,1,7.8.5,11.2-1.5s5.9-5.2,6.9-8.9c.3-1.2.2-2.6-.5-3.7-.6-1.1-1.7-1.9-2.9-2.3l-13.8-3.7c-3-.8-6,1-6.8,3.9-.7,2.6-1.5,5.7-2.2,8.3h0Z"/>
  <path class="st2" d="M182.6,262.9c6,1.6,9.6,7.9,8,13.9s-7.9,9.6-13.9,8h0c-6-1.6-9.6-7.9-8-13.9s7.9-9.6,13.9-8h0Z"/>
</svg>
